<svg width="24.709717" height="20.413940" viewBox="0 0 24.7097 20.4139" fill="none" xmlns="http://www.w3.org/2000/svg" xmlns:xlink="http://www.w3.org/1999/xlink">
	<desc>
			Created with Pixso.
	</desc>
	<defs/>
	<path id="monetization_on" d="M11.2429 17.3519L13.405 17.3519L13.405 16.076C14.4346 15.9229 15.3201 15.5911 16.0613 15.0808C16.8027 14.5704 17.1733 13.8134 17.1733 12.8098C17.1733 12.0953 16.9263 11.4403 16.4321 10.8449C15.9377 10.2495 14.9495 9.73065 13.4668 9.28833C12.2314 8.94812 11.3767 8.65039 10.9033 8.3952C10.4297 8.14008 10.1929 7.79132 10.1929 7.349C10.1929 6.90674 10.3833 6.55798 10.7642 6.3028C11.1453 6.04761 11.696 5.92004 12.4167 5.92004C13.0757 5.92004 13.5903 6.05188 13.9609 6.31555C14.3318 6.57922 14.5994 6.90674 14.7642 7.29797L16.741 6.63452C16.5144 6.03912 16.0974 5.52026 15.49 5.07794C14.8826 4.63568 14.2083 4.38898 13.4668 4.33795L13.4668 3.06207L11.3047 3.06207L11.3047 4.33795C10.2751 4.52509 9.47217 4.89935 8.89551 5.46075C8.31885 6.02209 8.03076 6.65155 8.03076 7.349C8.03076 8.14856 8.31372 8.79498 8.88013 9.28833C9.44629 9.78168 10.3369 10.207 11.5518 10.5642C12.8491 10.9555 13.75 11.3042 14.2544 11.6104C14.759 11.9166 15.0112 12.3164 15.0112 12.8098C15.0112 13.3711 14.7693 13.7836 14.2854 14.0474C13.8015 14.311 13.2197 14.4429 12.5403 14.4429C11.8606 14.4429 11.2583 14.2685 10.7334 13.9197C10.2083 13.571 9.82227 13.0479 9.57495 12.3504L7.53638 13.0139C7.82471 13.8304 8.27271 14.4896 8.88013 14.9915C9.48755 15.4933 10.2751 15.8378 11.2429 16.025L11.2429 17.3519ZM12.355 20.4139C10.6458 20.4139 9.03955 20.146 7.53638 19.6101C6.0332 19.0743 4.72583 18.347 3.61377 17.4284C2.50195 16.5098 1.62158 15.4295 0.9729 14.1877C0.324219 12.9459 0 11.619 0 10.207C0 8.79498 0.324219 7.46808 0.9729 6.22626C1.62158 4.98438 2.50195 3.90417 3.61377 2.98553C4.72583 2.06689 6.0332 1.33966 7.53638 0.803772C9.03955 0.267944 10.6458 0 12.355 0C14.064 0 15.6702 0.267944 17.1733 0.803772C18.6765 1.33966 19.9841 2.06689 21.0959 2.98553C22.208 3.90417 23.0881 4.98438 23.7368 6.22626C24.3855 7.46808 24.7097 8.79498 24.7097 10.207C24.7097 11.619 24.3855 12.9459 23.7368 14.1877C23.0881 15.4295 22.208 16.5098 21.0959 17.4284C19.9841 18.347 18.6765 19.0743 17.1733 19.6101C15.6702 20.146 14.064 20.4139 12.355 20.4139Z" fill="#FFFFFF" fill-opacity="1.000000" fill-rule="nonzero"/>
</svg>
