<svg width="29.959961" height="24.190613" viewBox="0 0 29.96 24.1906" fill="none" xmlns="http://www.w3.org/2000/svg" xmlns:xlink="http://www.w3.org/1999/xlink">
	<desc>
			Created with Pixso.
	</desc>
	<defs/>
	<path id="Vector" d="M11.3074 23.8801L11.2991 23.8761L11.2725 23.8601C11.1177 23.7657 10.9639 23.6688 10.8115 23.5695C8.97949 22.3634 7.26733 20.9467 5.70361 19.3428C2.93433 16.4801 0 12.2321 0 7.00012C0 3.09607 2.96558 0.00012207 6.54492 0.00012207C7.54004 -0.00531006 8.52344 0.237854 9.42188 0.711548C10.3203 1.18524 11.1108 1.87726 11.7346 2.73608C12.3586 1.87708 13.1494 1.185 14.0481 0.711304C14.9468 0.23761 15.9304 -0.00549316 16.9258 0.00012207C20.5039 0.00012207 23.4695 3.09607 23.4695 7.00012C23.4695 12.2334 20.5352 16.4814 17.7659 19.3414C16.2021 20.9454 14.49 22.3621 12.658 23.5681C12.5054 23.6679 12.3518 23.7653 12.1968 23.8601L12.1704 23.8761L12.1619 23.8814L12.1584 23.8828C12.0278 23.9594 11.8823 23.9994 11.7346 23.9994C11.5869 23.9994 11.4417 23.9594 11.311 23.8828L11.3074 23.8801Z" fill="#FFFFFF" fill-opacity="1.000000" fill-rule="nonzero"/>
	<path id="offline_bolt" d="M21.9409 21.6763L25.2317 14.5526L22.9622 14.5526L22.9622 9.94299L19.5579 17.0668L21.9409 17.0668L21.9409 21.6763ZM22.3948 24.1906C21.3484 24.1906 20.3647 23.9706 19.4443 23.5306C18.5239 23.0906 17.7234 22.4935 17.0425 21.7392C16.3616 20.9849 15.8225 20.0979 15.4253 19.0782C15.0281 18.0585 14.8296 16.9691 14.8296 15.8097C14.8296 14.6503 15.0281 13.5608 15.4253 12.5411C15.8225 11.5214 16.3616 10.6344 17.0425 9.88013C17.7234 9.12585 18.5239 8.52869 19.4443 8.08868C20.3647 7.64868 21.3484 7.42871 22.3948 7.42871C23.4414 7.42871 24.4248 7.64868 25.3452 8.08868C26.2656 8.52869 27.0664 9.12585 27.7473 9.88013C28.4282 10.6344 28.967 11.5214 29.3643 12.5411C29.7615 13.5608 29.96 14.6503 29.96 15.8097C29.96 16.9691 29.7615 18.0585 29.3643 19.0782C28.967 20.0979 28.4282 20.9849 27.7473 21.7392C27.0664 22.4935 26.2656 23.0906 25.3452 23.5306C24.4248 23.9706 23.4414 24.1906 22.3948 24.1906Z" fill="#894189" fill-opacity="1.000000" fill-rule="nonzero"/>
	<path id="offline_bolt" d="M22.3259 21.1429L25.3176 14.6667L23.2544 14.6667L23.2544 10.4763L20.1594 16.9525L22.3259 16.9525L22.3259 21.1429ZM22.7385 23.4286C21.7871 23.4286 20.8931 23.2286 20.0564 22.8287C19.2195 22.4286 18.4917 21.8858 17.8728 21.2001C17.2537 20.5143 16.7637 19.708 16.4026 18.781C16.0415 17.8541 15.8611 16.8636 15.8611 15.8096C15.8611 14.7556 16.0415 13.7651 16.4026 12.8382C16.7637 11.9112 17.2537 11.1049 17.8728 10.4191C18.4917 9.7334 19.2195 9.19055 20.0564 8.79053C20.8931 8.39056 21.7871 8.19055 22.7385 8.19055C23.6899 8.19055 24.584 8.39056 25.4209 8.79053C26.2576 9.19055 26.9854 9.7334 27.6045 10.4191C28.2234 11.1049 28.7134 11.9112 29.0745 12.8382C29.4355 13.7651 29.616 14.7556 29.616 15.8096C29.616 16.8636 29.4355 17.8541 29.0745 18.781C28.7134 19.708 28.2234 20.5143 27.6045 21.2001C26.9854 21.8858 26.2576 22.4286 25.4209 22.8287C24.584 23.2286 23.6899 23.4286 22.7385 23.4286Z" fill="#FFFFFF" fill-opacity="1.000000" fill-rule="nonzero"/>
</svg>
